<?xml version="1.0" encoding="UTF-8" standalone="no"?>
<svg
   xmlns:dc="http://purl.org/dc/elements/1.1/"
   xmlns:cc="http://creativecommons.org/ns#"
   xmlns:rdf="http://www.w3.org/1999/02/22-rdf-syntax-ns#"
   xmlns:svg="http://www.w3.org/2000/svg"
   xmlns="http://www.w3.org/2000/svg"
   xmlns:sodipodi="http://sodipodi.sourceforge.net/DTD/sodipodi-0.dtd"
   xmlns:inkscape="http://www.inkscape.org/namespaces/inkscape"
   width="500"
   height="500"
   viewBox="0 0 132.29166 132.29167"
   version="1.1"
   id="svg944"
   sodipodi:docname="jqk_int_.svg"
   inkscape:version="1.0.2-2 (e86c870879, 2021-01-15)">
  <sodipodi:namedview
     pagecolor="#ffffff"
     bordercolor="#666666"
     borderopacity="1"
     objecttolerance="10"
     gridtolerance="10"
     guidetolerance="10"
     inkscape:pageopacity="0"
     inkscape:pageshadow="2"
     inkscape:window-width="1536"
     inkscape:window-height="801"
     id="namedview13"
     showgrid="false"
     inkscape:zoom="0.55700645"
     inkscape:cx="250"
     inkscape:cy="250"
     inkscape:window-x="1358"
     inkscape:window-y="-8"
     inkscape:window-maximized="1"
     inkscape:current-layer="layer1"
     inkscape:document-rotation="0" />
  <defs
     id="defs938">
    <rect
       x="2.3711392"
       y="1.8969114"
       width="274.34081"
       height="215.29944"
       id="rect1515" />
  </defs>
  <metadata
     id="metadata941">
    <rdf:RDF>
      <cc:Work
         rdf:about="">
        <dc:format>image/svg+xml</dc:format>
        <dc:type
           rdf:resource="http://purl.org/dc/dcmitype/StillImage" />
        <dc:title></dc:title>
      </cc:Work>
    </rdf:RDF>
  </metadata>
  <g
     id="layer1">
    <circle
       style="fill:#393b3b;stroke:none;stroke-width:13.229;stroke-linecap:round;stroke-linejoin:round;stroke-miterlimit:100;stroke-dasharray:none;paint-order:fill markers stroke;fill-opacity:1"
       id="path1509"
       cx="66.145836"
       cy="66.145836"
       r="66.145836" />
    <g
       aria-label="?"
       transform="translate(30.278107,10.994644)"
       id="text1513"
       style="font-style:normal;font-weight:normal;font-size:132.292px;line-height:1;font-family:sans-serif;white-space:pre;shape-inside:url(#rect1515);fill:#000000;fill-opacity:1;stroke:none">
      <path
         d="m 23.106316,73.597719 q 0.581361,-8.397442 3.423572,-14.14646 2.906807,-5.813614 8.914208,-10.658292 6.071996,-4.909273 8.139059,-7.170123 5.55523,-6.136592 4.844678,-13.048333 -0.645957,-6.265783 -7.299315,-6.45957 -4.586295,-0.129192 -7.751485,2.906806 -3.16519,3.035999 -4.198721,8.268251 L 10.897727,33.419189 Q 11.737471,21.146005 20.3287,13.975882 28.984525,6.7411624 42.032858,6.9995452 54.241446,7.257928 61.088591,13.975882 q 6.847145,6.717953 6.007401,17.89301 -0.775149,10.98127 -12.531567,20.864414 l -8.268251,6.847145 q -5.942805,5.490635 -7.234719,13.952672 z m -6.007401,20.15386 q -0.129192,-4.327912 2.777615,-7.299314 2.906807,-2.971403 7.299315,-3.100594 4.134125,-0.129192 7.170124,2.648424 3.035998,2.713019 3.165189,7.040932 0.129192,4.069529 -2.713019,7.105523 -2.842212,3.036 -7.363911,3.16519 -4.327912,0 -7.299315,-2.64842 -2.906807,-2.648424 -3.035998,-6.911741 z"
         style="font-style:italic;font-variant:normal;font-weight:bold;font-stretch:normal;font-size:132.292px;font-family:Roboto;-inkscape-font-specification:'Roboto Bold Italic';fill:#ffffff;fill-opacity:1"
         id="path837" />
    </g>
  </g>
</svg>
