<?xml version="1.0" encoding="UTF-8" standalone="no"?>
<svg
   xmlns:dc="http://purl.org/dc/elements/1.1/"
   xmlns:cc="http://creativecommons.org/ns#"
   xmlns:rdf="http://www.w3.org/1999/02/22-rdf-syntax-ns#"
   xmlns:svg="http://www.w3.org/2000/svg"
   xmlns="http://www.w3.org/2000/svg"
   xmlns:sodipodi="http://sodipodi.sourceforge.net/DTD/sodipodi-0.dtd"
   xmlns:inkscape="http://www.inkscape.org/namespaces/inkscape"
   width="500"
   height="500"
   viewBox="0 0 132.29166 132.29167"
   version="1.1"
   id="svg944"
   sodipodi:docname="wni_int3.svg"
   inkscape:version="1.0.2-2 (e86c870879, 2021-01-15)">
  <sodipodi:namedview
     pagecolor="#ffffff"
     bordercolor="#666666"
     borderopacity="1"
     objecttolerance="10"
     gridtolerance="10"
     guidetolerance="10"
     inkscape:pageopacity="0"
     inkscape:pageshadow="2"
     inkscape:window-width="1536"
     inkscape:window-height="801"
     id="namedview1449"
     showgrid="false"
     inkscape:zoom="0.70769317"
     inkscape:cx="250"
     inkscape:cy="250"
     inkscape:window-x="1358"
     inkscape:window-y="-8"
     inkscape:window-maximized="1"
     inkscape:current-layer="layer1"
     inkscape:document-rotation="0" />
  <defs
     id="defs938">
    <rect
       x="2.3711392"
       y="1.8969114"
       width="274.34081"
       height="215.29944"
       id="rect1515" />
  </defs>
  <metadata
     id="metadata941">
    <rdf:RDF>
      <cc:Work
         rdf:about="">
        <dc:format>image/svg+xml</dc:format>
        <dc:type
           rdf:resource="http://purl.org/dc/dcmitype/StillImage" />
        <dc:title></dc:title>
      </cc:Work>
    </rdf:RDF>
  </metadata>
  <g
     id="layer1">
    <circle
       style="fill:#3be022;stroke:none;stroke-width:13.229;stroke-linecap:round;stroke-linejoin:round;stroke-miterlimit:100;stroke-dasharray:none;paint-order:fill markers stroke;fill-opacity:1"
       id="path1509"
       cx="66.145836"
       cy="66.145836"
       r="66.145836" />
    <g
       aria-label="3"
       transform="translate(27.507749,10.792334)"
       id="text1513"
       style="font-style:normal;font-weight:normal;font-size:132.292px;line-height:1;font-family:sans-serif;white-space:pre;shape-inside:url(#rect1515);fill:#000000;fill-opacity:1;stroke:#000000;stroke-width:10.5833;stroke-miterlimit:4;stroke-dasharray:none;stroke-opacity:1;paint-order:stroke fill markers">
      <path
         d="m 29.630482,47.113479 8.72042,0.0646 q 6.653358,0 11.110462,-3.681955 4.521699,-3.681956 5.232252,-9.883144 0.645957,-5.232252 -2.002467,-8.332846 -2.648424,-3.165189 -7.945272,-3.294381 -5.296848,-0.129191 -9.107994,2.906807 -3.746551,2.971402 -4.586295,7.751485 l -18.21599,0.129191 Q 13.41696,21.404388 22.58955,14.169669 31.826736,6.8703538 45.00426,6.9995452 58.310976,7.257928 66.062461,14.428051 q 7.751484,7.170124 7.040932,18.991138 -0.90434,13.435907 -17.117863,21.058201 6.33038,3.035998 9.237186,8.655824 2.971403,5.555231 2.583829,12.402376 -0.45217,8.526633 -5.232253,14.986204 -4.780082,6.459571 -12.789949,9.947736 -8.009868,3.42358 -17.31165,3.22979 Q 19.87653,103.57013 11.931258,96.141621 3.9859864,88.713114 4.1151778,76.569121 H 22.201976 q -0.129192,5.232253 2.906807,8.591229 3.100593,3.294381 8.591229,3.423573 6.330379,0.129191 10.852078,-3.552764 4.5217,-3.746551 5.296848,-9.753952 0.839744,-6.45957 -2.325445,-9.883143 -3.100594,-3.423572 -9.495569,-3.617359 l -10.722887,-0.0646 z"
         style="font-style:italic;font-variant:normal;font-weight:bold;font-stretch:normal;font-size:132.292px;font-family:Roboto;-inkscape-font-specification:'Roboto Bold Italic';fill:#ffffff;fill-opacity:1;stroke:#000000;stroke-width:10.5833;stroke-miterlimit:4;stroke-dasharray:none;stroke-opacity:1;paint-order:stroke fill markers"
         id="path837" />
    </g>
  </g>
</svg>
